<svg width="364" height="513" viewBox="0 0 364 513" fill="none" xmlns="http://www.w3.org/2000/svg">
<path d="M181.86 512.118L33.7263 470.995L0.715332 100.738H363.449L330.403 470.937L181.86 512.118Z" fill="#264DE4"/>
<path d="M302.112 447.364L330.352 131.012H182.082V480.641L302.112 447.364Z" fill="#2965F1"/>
<path d="M76.3923 268.335L80.4623 313.745H182.082V268.335H76.3923Z" fill="#EBEBEB"/>
<path d="M68.2144 176.423L72.3423 221.834H182.082V176.423H181.925H68.2144Z" fill="#EBEBEB"/>
<path d="M182.082 386.271L181.883 386.324L131.309 372.668L128.076 336.451H103.501H82.4912L88.8532 407.752L181.873 433.575L182.082 433.517V386.271Z" fill="#EBEBEB"/>
<path d="M86.0823 0.118164H141.082V23.1182H109.082V46.1182H141.082V69.1182H86.0823V0.118164Z" fill="black"/>
<path d="M152.082 0.118164H207.082V20.1182H175.082V24.1182H207.082V70.1182H152.082V49.1182H184.082V45.1182H152.082V0.118164Z" fill="black"/>
<path d="M218.082 0.118164H273.082V20.1182H241.082V24.1182H273.082V70.1182H218.082V49.1182H250.082V45.1182H218.082V0.118164Z" fill="black"/>
<path d="M287.481 268.335L295.679 176.423H181.925V221.834H245.913L241.781 268.335H181.925V313.745H237.843L232.572 372.639L181.925 386.309V433.553L275.019 407.752L275.702 400.08L286.373 280.529L287.481 268.335Z" fill="white"/>
</svg>
