<svg width="363" height="513" viewBox="0 0 363 513" fill="none" xmlns="http://www.w3.org/2000/svg">
<path d="M362.798 100.738L329.752 470.937L181.209 512.118L33.0752 470.995L0.064209 100.738H362.798Z" fill="#E44D26"/>
<path d="M181.431 480.641L301.461 447.364L329.701 131.012H181.431V480.641Z" fill="#F16529"/>
<path d="M117.191 221.834H181.431V176.423H181.274H67.5632L68.6502 188.606L79.8112 313.745H181.431V268.335H121.341L117.191 221.834Z" fill="#EBEBEB"/>
<path d="M127.425 336.451H102.85H81.8401L88.2021 407.752L181.222 433.575L181.431 433.517V386.271L181.232 386.324L130.658 372.668L127.425 336.451Z" fill="#EBEBEB"/>
<path d="M33.8132 0.118164H56.8902V22.9182H78.0002V0.118164H101.078V69.1622H78.0012V46.0422H56.8912V69.1622H33.8142V0.118164H33.8132Z" fill="black"/>
<path d="M131.425 23.0142H111.109V0.118164H174.829V23.0142H154.504V69.1622H131.426V23.0142H131.425Z" fill="black"/>
<path d="M184.942 0.118164H209.005L223.807 24.3782L238.594 0.118164H262.666V69.1622H239.684V34.9402L223.807 59.4892H223.41L207.522 34.9402V69.1622H184.942V0.118164Z" fill="black"/>
<path d="M274.151 0.118164H297.235V46.3402H329.688V69.1622H274.151V0.118164Z" fill="black"/>
<path d="M181.274 313.745H237.192L231.921 372.639L181.274 386.309V433.553L274.368 407.752L275.051 400.08L285.722 280.529L286.83 268.335H274.593H181.274V313.745Z" fill="white"/>
<path d="M181.274 221.723V221.834H290.816H290.962L291.873 211.627L293.942 188.606L295.028 176.423H181.274V204.627V221.723Z" fill="white"/>
</svg>
